<?xml version="1.0" encoding="UTF-8"?>
<svg id="Layer_1" data-name="Layer 1" xmlns="http://www.w3.org/2000/svg" viewBox="0 0 50 50">
  <defs>
    <style>
      .cls-1 {
        stroke: #ff3232;
      }

      .cls-1, .cls-2 {
        fill: none;
        stroke-linecap: round;
        stroke-linejoin: round;
        stroke-width: 2px;
      }

      .cls-2 {
        stroke: #00082e;
      }
    </style>
  </defs>
  <g>
    <path class="cls-2" d="M26.74,40.06l2.5.38c.13.44.32.88.51,1.26l-1.54,2.01c-.19.25-.19.63.06.82l2.44,2.39c.26.25.58.25.83.06l2.05-1.51c.45.19.83.38,1.28.5l.38,2.45c.06.31.32.57.64.57h3.4c.32,0,.58-.25.64-.57l.38-2.45c.45-.13.9-.31,1.28-.5l2.05,1.51c.26.19.64.19.83-.06l2.44-2.39c.26-.25.26-.57.06-.82l-1.6-2.01c.19-.44.38-.82.51-1.26l2.5-.38c.32-.06.58-.31.58-.63v-3.34c0-.31-.26-.57-.58-.63l-2.5-.38c-.13-.44-.32-.88-.51-1.26l1.54-2.01c.19-.25.19-.63-.06-.82l-2.44-2.39c-.26-.25-.58-.25-.83-.06l-2.05,1.51c-.45-.19-.83-.38-1.28-.5l-.38-2.45c-.06-.31-.32-.57-.64-.57h-3.4c-.32,0-.58.25-.64.57l-.38,2.45c-.45.13-.9.31-1.28.5l-1.99-1.45c-.26-.19-.58-.13-.83.06l-2.44,2.39c-.19.19-.19.57,0,.82l1.54,2.01c-.19.44-.38.82-.51,1.26l-2.5.38c-.32.06-.58.31-.58.63v3.34c-.06.25.19.57.51.57h0Z"/>
    <path class="cls-2" d="M37.58,42.39c2.57,0,4.68-2.08,4.68-4.59s-2.12-4.59-4.68-4.59-4.68,2.08-4.68,4.59c0,2.52,2.12,4.59,4.68,4.59Z"/>
  </g>
  <g>
    <polygon class="cls-2" points="49 1 1 1 1 1.93 1 19.92 1 49 20.29 49 20.29 19.92 49 19.92 49 1"/>
    <line class="cls-2" x1="20.29" y1="19.92" x2="1" y2="1"/>
    <line class="cls-2" x1="20.29" y1="49" x2="10.64" y2="39.7"/>
    <line class="cls-2" x1="1" y1="49" x2="10.64" y2="39.7"/>
    <line class="cls-2" x1="49" y1="19.92" x2="37.67" y2="10.46"/>
    <line class="cls-2" x1="49" y1="1" x2="37.67" y2="10.46"/>
    <line class="cls-2" x1="10.64" y1="10.46" x2="10.64" y2="39.7"/>
    <line class="cls-2" x1="37.67" y1="10.46" x2="10.64" y2="10.46"/>
  </g>
  <g>
    <line class="cls-1" x1="13.44" y1="32.97" x2="16.75" y2="36.16"/>
    <line class="cls-1" x1="13.44" y1="28.3" x2="16.75" y2="31.5"/>
    <line class="cls-1" x1="13.44" y1="23.63" x2="16.75" y2="26.83"/>
  </g>
  <g>
    <line class="cls-1" x1="23.2" y1="4.11" x2="19.94" y2="7.36"/>
    <line class="cls-1" x1="27.97" y1="4.11" x2="24.71" y2="7.36"/>
    <line class="cls-1" x1="32.73" y1="4.11" x2="29.47" y2="7.36"/>
  </g>
</svg>