<?xml version="1.0" encoding="UTF-8"?>
<svg id="Layer_1" data-name="Layer 1" xmlns="http://www.w3.org/2000/svg" viewBox="0 0 50 50">
  <defs>
    <style>
      .cls-1 {
        stroke: #ff3232;
      }

      .cls-1, .cls-2 {
        fill: none;
        stroke-linecap: round;
        stroke-linejoin: round;
        stroke-width: 2px;
      }

      .cls-2 {
        stroke: #00082e;
      }
    </style>
  </defs>
  <g>
    <path class="cls-2" d="M23.27,46.17c0,1.56-3.62,2.83-8.08,2.83s-8.09-1.27-8.09-2.83v-19.38c0-1.56,3.62-2.83,8.09-2.83s8.08,1.27,8.08,2.83v19.38Z"/>
    <path class="cls-2" d="M7.29,31.6s7.39,4.62,15.78,0"/>
    <path class="cls-2" d="M7.29,35.48s7.39,4.62,15.78,0"/>
    <path class="cls-2" d="M7.29,39.36s7.39,4.62,15.78,0"/>
    <path class="cls-2" d="M7.29,43.24s7.39,4.62,15.78,0"/>
    <ellipse class="cls-2" cx="15.18" cy="26.79" rx="8.08" ry="2.83"/>
    <g>
      <path class="cls-2" d="M42.9,38.79v7.38c0,1.56-3.62,2.83-8.08,2.83s-8.09-1.27-8.09-2.83v-7.38"/>
      <path class="cls-2" d="M26.93,43.5s7.39,4.62,15.78,0"/>
      <ellipse class="cls-2" cx="34.82" cy="38.79" rx="8.08" ry="2.83"/>
    </g>
    <g>
      <path class="cls-1" d="M32.15,5.38c0-1.53-1.24-2.76-2.76-2.76s-2.76,1.24-2.76,2.76c0,.15.01.29.03.44s.06.28.1.42.1.26.16.39.14.24.22.36.17.22.27.32c.44.45.99.67,1.6.79.81.16,1.7.22,2.33.83.1.1.19.2.28.31s.16.23.23.35.13.25.17.39.09.28.11.42.04.29.05.44c0,.02,0,.05,0,.07,0,1.53-1.24,2.76-2.76,2.76s-2.76-1.24-2.76-2.76"/>
      <line class="cls-1" x1="29.45" y1="1" x2="29.45" y2="2.17"/>
      <line class="cls-1" x1="29.45" y1="13.94" x2="29.45" y2="15.11"/>
    </g>
  </g>
  <g>
    <polyline class="cls-1" points="36.61 33.1 42.74 32.46 42.1 26.33"/>
    <line class="cls-1" x1="8.15" y1="4.41" x2="42.74" y2="32.46"/>
  </g>
</svg>