<?xml version="1.0" encoding="UTF-8"?>
<svg id="Layer_2" data-name="Layer 2" xmlns="http://www.w3.org/2000/svg" viewBox="0 0 31.39 50">
  <defs>
    <style>
      .cls-1 {
        stroke: #00082e;
      }

      .cls-1, .cls-2 {
        fill: none;
        stroke-linecap: round;
        stroke-linejoin: round;
        stroke-width: 2px;
      }

      .cls-3 {
        fill: #ff3232;
      }

      .cls-2 {
        stroke: #ff3232;
      }
    </style>
  </defs>
  <g id="Layer_1-2" data-name="Layer 1">
    <g>
      <g>
        <g>
          <line class="cls-1" x1="21.99" y1="28.88" x2="21.99" y2="39.23"/>
          <line class="cls-1" x1="25.68" y1="28.88" x2="25.68" y2="49"/>
        </g>
        <g>
          <line class="cls-1" x1="5.53" y1="28.88" x2="5.53" y2="39.23"/>
          <line class="cls-1" x1="9.22" y1="28.88" x2="9.22" y2="39.29"/>
        </g>
        <g>
          <rect class="cls-1" x="1" y="9.86" width="29.39" height="19.02" rx="1.4" ry="1.4"/>
          <polygon class="cls-1" points="3.11 1 3.11 9.86 28.28 9.86 28.28 1 21.48 1 21.48 6.91 17.7 6.91 17.7 1 3.11 1"/>
        </g>
        <line class="cls-2" x1="5.53" y1="39.23" x2="5.53" y2="41.73"/>
        <line class="cls-2" x1="9.21" y1="39.23" x2="9.21" y2="41.73"/>
        <line class="cls-2" x1="21.99" y1="39.23" x2="21.99" y2="41.73"/>
      </g>
      <path class="cls-3" d="M21.99,36.79c-2.04,0-3.69,1.65-3.69,3.69s1.65,3.69,3.69,3.69,3.69-1.65,3.69-3.69-1.65-3.69-3.69-3.69h0Z"/>
      <path class="cls-3" d="M22.03,34.23c3.42,0,6.2,2.78,6.2,6.2s-2.78,6.2-6.2,6.2-6.2-2.78-6.2-6.2,2.78-6.2,6.2-6.2M22.03,32.23c-4.53,0-8.2,3.67-8.2,8.2s3.67,8.2,8.2,8.2,8.2-3.67,8.2-8.2-3.67-8.2-8.2-8.2h0Z"/>
    </g>
  </g>
</svg>