<?xml version="1.0" encoding="UTF-8"?>
<svg id="Layer_1" data-name="Layer 1" xmlns="http://www.w3.org/2000/svg" viewBox="0 0 50 50">
  <defs>
    <style>
      .cls-1 {
        stroke: #ff3232;
      }

      .cls-1, .cls-2 {
        fill: none;
        stroke-linecap: round;
        stroke-linejoin: round;
        stroke-width: 2px;
      }

      .cls-2 {
        stroke: #00082e;
      }
    </style>
  </defs>
  <path class="cls-2" d="M42.82,9.44L25,1,7.16,9.31v15.02c0,11.06,7.02,20.92,17.46,24.54l.39.13.38-.13c10.44-3.62,17.46-13.48,17.46-24.54l-.02-14.89Z"/>
  <g>
    <line class="cls-2" x1="25.95" y1="19.91" x2="25.95" y2="15.65"/>
    <line class="cls-2" x1="21.43" y1="22.61" x2="18.07" y2="20.97"/>
    <line class="cls-2" x1="22.53" y1="28.25" x2="20.18" y2="30.9"/>
    <line class="cls-2" x1="30.39" y1="29.13" x2="29.26" y2="28.12"/>
    <line class="cls-2" x1="30.46" y1="22.77" x2="32.09" y2="22.15"/>
    <path class="cls-2" d="M25.95,29.34c-2.55,0-4.63-2.08-4.63-4.63s2.08-4.63,4.63-4.63,4.63,2.08,4.63,4.63-2.08,4.63-4.63,4.63Z"/>
    <path class="cls-1" d="M34.74,22.87c-1.21,0-2.19-.98-2.19-2.19s.98-2.19,2.19-2.19,2.19.98,2.19,2.19-.98,2.19-2.19,2.19Z"/>
    <circle class="cls-1" cx="15.26" cy="19.61" r="2.19"/>
    <path class="cls-1" d="M32.97,33.82c-1.36,0-2.47-1.11-2.47-2.47s1.11-2.47,2.47-2.47,2.47,1.11,2.47,2.47-1.11,2.47-2.47,2.47Z"/>
    <circle class="cls-1" cx="17.8" cy="33.31" r="3.28"/>
    <path class="cls-1" d="M25.95,15.65c-1.21,0-2.19-.98-2.19-2.19s.98-2.19,2.19-2.19,2.19.98,2.19,2.19-.98,2.19-2.19,2.19Z"/>
  </g>
</svg>